<?xml version="1.0" standalone="no"?>
<!DOCTYPE svg PUBLIC "-//W3C//DTD SVG 20010904//EN"
 "http://www.w3.org/TR/2001/REC-SVG-20010904/DTD/svg10.dtd">
<svg version="1.0" xmlns="http://www.w3.org/2000/svg"
 width="330.000000pt" height="330.000000pt" viewBox="0 0 330.000000 330.000000"
 preserveAspectRatio="xMidYMid meet">
<metadata>
Created by potrace 1.11, written by Peter Selinger 2001-2013
</metadata>
<g transform="translate(0.000000,330.000000) scale(0.100000,-0.100000)"
fill="#000000" stroke="none">
<path d="M870 2791 c-86 -28 -141 -79 -198 -182 -21 -39 -48 -74 -62 -81 -57
-28 -131 -82 -142 -102 l-11 -21 23 20 23 20 -11 -20 c-5 -11 -21 -29 -33 -40
-18 -15 -20 -16 -10 -2 7 9 11 17 7 17 -7 0 -81 -116 -118 -185 -41 -78 -97
-238 -102 -290 -2 -26 -9 -52 -15 -58 -6 -6 -11 -22 -11 -34 0 -13 -47 -106
-105 -207 l-106 -183 112 -194 c61 -107 118 -199 126 -206 10 -8 84 -11 243
-11 l229 1 92 161 c51 89 104 180 118 202 l26 41 240 -415 c257 -445 279 -475
372 -506 59 -20 120 -20 180 0 68 23 117 66 158 137 20 34 40 69 45 77 6 8 98
168 206 355 107 187 199 344 203 348 4 4 59 -82 122 -192 l114 -201 240 0 240
0 21 38 c11 20 64 113 118 205 l97 169 -43 71 c-24 40 -45 76 -47 80 -2 5 -27
49 -57 100 -36 61 -56 106 -60 139 -4 26 -10 48 -15 48 -5 0 -6 -8 -2 -17 5
-15 3 -15 -15 2 -11 11 -23 36 -27 55 l-7 35 21 -19 c11 -11 21 -26 21 -34 0
-9 3 -13 6 -9 9 9 -42 165 -90 270 -25 54 -63 122 -85 151 -23 29 -41 57 -41
63 0 20 -72 80 -130 108 -56 27 -64 35 -105 107 -25 43 -58 92 -74 110 -109
125 -322 113 -421 -23 -15 -21 -29 -37 -31 -34 -2 2 -40 6 -84 10 -44 3 -100
8 -125 10 -67 6 -476 6 -540 0 -30 -2 -80 -7 -111 -10 -54 -5 -56 -5 -86 32
-44 56 -122 95 -197 99 -33 2 -72 0 -86 -5z m550 -166 c0 -14 -3 -25 -7 -25
-5 -1 -34 -3 -65 -7 -57 -5 -58 -5 -58 20 0 24 4 26 48 30 26 2 55 4 65 5 12
1 17 -5 17 -23z m248 3 c-3 -21 -9 -23 -70 -26 -67 -3 -68 -3 -68 23 0 24 2
25 71 25 67 0 70 -1 67 -22z m230 14 c6 -2 12 -14 12 -26 0 -19 -5 -22 -32
-20 -18 1 -48 3 -65 3 -29 1 -33 5 -33 27 0 24 2 25 53 23 28 -1 58 -4 65 -7z
m180 -37 c-14 -32 -55 -31 -61 2 -4 21 0 23 34 23 37 0 38 -1 27 -25z m-1487
-134 c-24 -34 -67 -51 -51 -20 8 15 53 47 68 49 2 0 -6 -13 -17 -29z m2236
-60 c21 -27 15 -32 -17 -16 -26 14 -50 42 -50 60 0 10 52 -25 67 -44z m-1163
-186 l0 -30 -77 -2 -77 -1 0 34 0 34 77 -3 77 -2 0 -30z m206 19 c0 -19 -36
-54 -56 -54 -20 0 -24 5 -24 28 0 16 2 31 5 33 5 6 75 -1 75 -7z m-61 -100 c2
-1 -6 -18 -17 -36 -11 -18 -48 -82 -82 -142 l-62 -108 -52 88 c-28 49 -66 115
-84 146 l-33 57 73 3 c79 3 251 -2 257 -8z m-1509 -178 c-25 -41 -30 -44 -30
-16 0 21 38 66 47 56 3 -3 -5 -21 -17 -40z"/>
</g>
</svg>
